<mxfile host="app.diagrams.net" modified="2022-04-23T16:11:48.349Z" agent="5.0 (Macintosh; Intel Mac OS X 10_15_7) AppleWebKit/537.36 (KHTML, like Gecko) Chrome/100.0.4896.127 Safari/537.36" etag="edjQFrZ9rM9iSVyV2DYI" version="17.4.6" type="github">
  <diagram id="hA9azZN_8vsqGA2PCHXh" name="第 1 页">
    <mxGraphModel dx="1298" dy="809" grid="1" gridSize="10" guides="1" tooltips="1" connect="1" arrows="1" fold="1" page="1" pageScale="1" pageWidth="827" pageHeight="1169" math="0" shadow="0">
      <root>
        <mxCell id="0" />
        <mxCell id="1" parent="0" />
        <mxCell id="Bk8sEN0hRQiaMwIKN1_x-1" value="TRTCKaraoke" style="rounded=1;whiteSpace=wrap;html=1;fillColor=#dae8fc;strokeColor=#6c8ebf;fontSize=9;" vertex="1" parent="1">
          <mxGeometry x="253.00000000000009" y="210.00000000000006" width="161.13" height="42.120000000000005" as="geometry" />
        </mxCell>
      </root>
    </mxGraphModel>
  </diagram>
</mxfile>
